<svg xmlns="http://www.w3.org/2000/svg" viewBox="0 0 381.52 381.54"><defs><style>.cls-1{fill:#e6e6e6;}</style></defs><title>Asset 1</title><g id="Layer_2" data-name="Layer 2"><g id="Layer_1-2" data-name="Layer 1"><path class="cls-1" d="M190.77,0A190.15,190.15,0,0,0,102.5,21.68Q99.41,23.3,96.38,25V190.77a94.52,94.52,0,1,0,25.28-64.21v-30A116.91,116.91,0,1,1,102,266.7q-2.92-3.41-5.57-7a116.23,116.23,0,0,1-22.52-68.88V40.14A190.91,190.91,0,0,0,48.58,63.73v127A142.3,142.3,0,0,0,190.77,333C269.16,333,333,269.18,333,190.77S269.16,48.58,190.77,48.58a141.13,141.13,0,0,0-69.11,18V40.42a164.19,164.19,0,0,1,69.11-15.14c91.25,0,165.47,74.24,165.47,165.49S282,356.27,190.77,356.27a164.2,164.2,0,0,1-69.11-15.14q-3.33-1.54-6.58-3.21a167.54,167.54,0,0,1-41.22-30.13,165,165,0,0,1-25.28-32.43,162.52,162.52,0,0,1-12.34-25.4,140.86,140.86,0,0,1-12.94-59.18V99.52a190.3,190.3,0,0,0,0,182.51,191.36,191.36,0,0,0,25.28,35.79q2.88,3.22,5.91,6.32A190.57,190.57,0,0,0,73.86,341.4a189.82,189.82,0,0,0,116.91,40.14C296,381.54,381.52,296,381.52,190.77S296,0,190.77,0Zm0,121.66a69.11,69.11,0,1,1-69.11,69.11A69.19,69.19,0,0,1,190.77,121.66Z"/></g></g></svg>