<svg id="Asset_1" data-name="Asset 1" xmlns="http://www.w3.org/2000/svg" width="611.681" height="611.701" viewBox="0 0 611.681 611.701">
  <g id="Layer_1" data-name="Layer 1" transform="translate(0 0)">
    <path id="Path_3" data-name="Path 3" d="M305.855,0A304.857,304.857,0,0,0,164.337,34.758q-4.954,2.6-9.812,5.323V305.851a151.538,151.538,0,1,0,40.53-102.944v-48.1a187.435,187.435,0,1,1-31.52,272.776q-4.681-5.467-8.93-11.223A186.344,186.344,0,0,1,118.5,305.931V64.354a306.076,306.076,0,0,0-40.61,37.82V305.786C77.89,431.65,179.9,533.756,305.807,533.88c125.726,0,228.077-102.319,228.077-228.029S431.533,77.886,305.855,77.886a226.266,226.266,0,0,0-110.8,28.858V64.8a263.236,263.236,0,0,1,110.8-24.273c146.3,0,265.289,119.025,265.289,265.321S452.119,571.187,305.855,571.187a263.254,263.254,0,0,1-110.8-24.273q-5.339-2.469-10.549-5.146a268.606,268.606,0,0,1-66.086-48.306,264.535,264.535,0,0,1-40.53-51.993,260.555,260.555,0,0,1-19.784-40.722,225.833,225.833,0,0,1-20.746-94.88V159.555A305.344,305.344,0,0,0,77.89,509.542q4.617,5.162,9.475,10.133A306.486,306.486,0,0,0,305.855,611.7c168.709,0,305.818-137.141,305.818-305.85S474.564,0,305.855,0Zm0,195.05a110.8,110.8,0,1,1-110.8,110.8A110.8,110.8,0,0,1,305.855,195.05Z" transform="translate(0.007 0)" fill="#fff"/>
  </g>
</svg>
